<mxfile host="app.diagrams.net" modified="2023-05-17T20:29:45.975Z" agent="Mozilla/5.0 (Windows NT 10.0; Win64; x64) AppleWebKit/537.36 (KHTML, like Gecko) Chrome/113.0.0.0 Safari/537.36 Edg/113.0.1774.42" etag="TGpS1jnnKjYs3ORY3rFT" version="21.3.2" type="device">
  <diagram name="Page-1" id="MwQd6rDNL2qFdhUxhePP">
    <mxGraphModel dx="948" dy="573" grid="1" gridSize="10" guides="1" tooltips="1" connect="1" arrows="1" fold="1" page="1" pageScale="1" pageWidth="850" pageHeight="1100" math="0" shadow="0">
      <root>
        <mxCell id="0" />
        <mxCell id="1" parent="0" />
        <mxCell id="iMYPUge1Ob-6ghTDvoB5-9" value="User Profile Registration" style="whiteSpace=wrap;html=1;aspect=fixed;verticalAlign=top;fillColor=none;fontSize=16;" vertex="1" parent="1">
          <mxGeometry x="185.5" y="40" width="510" height="510" as="geometry" />
        </mxCell>
        <mxCell id="iMYPUge1Ob-6ghTDvoB5-1" value="Actor" style="shape=umlActor;verticalLabelPosition=bottom;verticalAlign=top;outlineConnect=0;html=1;horizontal=1;fontColor=none;noLabel=1;" vertex="1" parent="1">
          <mxGeometry x="60" y="148" width="40" height="80" as="geometry" />
        </mxCell>
        <mxCell id="iMYPUge1Ob-6ghTDvoB5-7" value="Customer" style="text;html=1;align=center;verticalAlign=middle;resizable=0;points=[];autosize=1;strokeColor=none;fillColor=none;" vertex="1" parent="1">
          <mxGeometry x="40" y="228" width="80" height="30" as="geometry" />
        </mxCell>
        <mxCell id="iMYPUge1Ob-6ghTDvoB5-6" value="Actor" style="shape=umlActor;verticalLabelPosition=bottom;verticalAlign=top;outlineConnect=0;html=1;horizontal=1;fontColor=none;noLabel=1;" vertex="1" parent="1">
          <mxGeometry x="60" y="340" width="40" height="80" as="geometry" />
        </mxCell>
        <mxCell id="iMYPUge1Ob-6ghTDvoB5-8" value="Restaurent" style="text;html=1;align=center;verticalAlign=middle;resizable=0;points=[];autosize=1;strokeColor=none;fillColor=none;" vertex="1" parent="1">
          <mxGeometry x="40" y="420" width="80" height="30" as="geometry" />
        </mxCell>
        <mxCell id="iMYPUge1Ob-6ghTDvoB5-12" value="" style="ellipse;whiteSpace=wrap;html=1;" vertex="1" parent="1">
          <mxGeometry x="220" y="110" width="105" height="70" as="geometry" />
        </mxCell>
        <mxCell id="iMYPUge1Ob-6ghTDvoB5-21" style="edgeStyle=orthogonalEdgeStyle;rounded=0;orthogonalLoop=1;jettySize=auto;html=1;exitX=1;exitY=0.5;exitDx=0;exitDy=0;" edge="1" parent="1" source="iMYPUge1Ob-6ghTDvoB5-12" target="iMYPUge1Ob-6ghTDvoB5-20">
          <mxGeometry relative="1" as="geometry" />
        </mxCell>
        <mxCell id="iMYPUge1Ob-6ghTDvoB5-16" value="Create Account" style="text;html=1;strokeColor=none;fillColor=none;align=center;verticalAlign=middle;whiteSpace=wrap;rounded=0;" vertex="1" parent="1">
          <mxGeometry x="227.5" y="122.5" width="90" height="45" as="geometry" />
        </mxCell>
        <mxCell id="iMYPUge1Ob-6ghTDvoB5-24" style="edgeStyle=orthogonalEdgeStyle;rounded=0;orthogonalLoop=1;jettySize=auto;html=1;exitX=1;exitY=0.5;exitDx=0;exitDy=0;entryX=0;entryY=0.5;entryDx=0;entryDy=0;" edge="1" parent="1" source="iMYPUge1Ob-6ghTDvoB5-20" target="iMYPUge1Ob-6ghTDvoB5-23">
          <mxGeometry relative="1" as="geometry" />
        </mxCell>
        <mxCell id="iMYPUge1Ob-6ghTDvoB5-20" value="" style="ellipse;whiteSpace=wrap;html=1;" vertex="1" parent="1">
          <mxGeometry x="373" y="110" width="105" height="70" as="geometry" />
        </mxCell>
        <mxCell id="iMYPUge1Ob-6ghTDvoB5-22" value="Insert details" style="text;html=1;strokeColor=none;fillColor=none;align=center;verticalAlign=middle;whiteSpace=wrap;rounded=0;" vertex="1" parent="1">
          <mxGeometry x="385.5" y="125" width="80" height="40" as="geometry" />
        </mxCell>
        <mxCell id="iMYPUge1Ob-6ghTDvoB5-23" value="" style="ellipse;whiteSpace=wrap;html=1;" vertex="1" parent="1">
          <mxGeometry x="530" y="110" width="105" height="70" as="geometry" />
        </mxCell>
        <mxCell id="iMYPUge1Ob-6ghTDvoB5-26" value="Verify details" style="text;html=1;strokeColor=none;fillColor=none;align=center;verticalAlign=middle;whiteSpace=wrap;rounded=0;" vertex="1" parent="1">
          <mxGeometry x="532.5" y="120" width="100" height="50" as="geometry" />
        </mxCell>
        <mxCell id="iMYPUge1Ob-6ghTDvoB5-27" value="Actor" style="shape=umlActor;verticalLabelPosition=bottom;verticalAlign=top;html=1;outlineConnect=0;fontColor=none;noLabel=1;" vertex="1" parent="1">
          <mxGeometry x="750" y="225" width="40" height="80" as="geometry" />
        </mxCell>
        <mxCell id="iMYPUge1Ob-6ghTDvoB5-28" value="System" style="text;html=1;strokeColor=none;fillColor=none;align=center;verticalAlign=middle;whiteSpace=wrap;rounded=0;" vertex="1" parent="1">
          <mxGeometry x="740" y="305" width="60" height="30" as="geometry" />
        </mxCell>
        <mxCell id="iMYPUge1Ob-6ghTDvoB5-29" value="" style="endArrow=none;html=1;rounded=0;" edge="1" parent="1">
          <mxGeometry width="50" height="50" relative="1" as="geometry">
            <mxPoint x="100" y="190" as="sourcePoint" />
            <mxPoint x="220" y="140" as="targetPoint" />
          </mxGeometry>
        </mxCell>
        <mxCell id="iMYPUge1Ob-6ghTDvoB5-30" value="" style="endArrow=none;html=1;rounded=0;entryX=0;entryY=0.5;entryDx=0;entryDy=0;" edge="1" parent="1" target="iMYPUge1Ob-6ghTDvoB5-12">
          <mxGeometry width="50" height="50" relative="1" as="geometry">
            <mxPoint x="100" y="390" as="sourcePoint" />
            <mxPoint x="220" y="162.5" as="targetPoint" />
          </mxGeometry>
        </mxCell>
        <mxCell id="iMYPUge1Ob-6ghTDvoB5-31" value="" style="endArrow=none;html=1;rounded=0;exitX=1;exitY=0.5;exitDx=0;exitDy=0;" edge="1" parent="1" source="iMYPUge1Ob-6ghTDvoB5-26">
          <mxGeometry width="50" height="50" relative="1" as="geometry">
            <mxPoint x="640" y="145" as="sourcePoint" />
            <mxPoint x="740" y="270" as="targetPoint" />
          </mxGeometry>
        </mxCell>
        <mxCell id="iMYPUge1Ob-6ghTDvoB5-39" style="edgeStyle=orthogonalEdgeStyle;rounded=0;orthogonalLoop=1;jettySize=auto;html=1;exitX=1;exitY=0.5;exitDx=0;exitDy=0;entryX=0;entryY=0.5;entryDx=0;entryDy=0;" edge="1" parent="1" source="iMYPUge1Ob-6ghTDvoB5-32" target="iMYPUge1Ob-6ghTDvoB5-34">
          <mxGeometry relative="1" as="geometry" />
        </mxCell>
        <mxCell id="iMYPUge1Ob-6ghTDvoB5-32" value="" style="ellipse;whiteSpace=wrap;html=1;" vertex="1" parent="1">
          <mxGeometry x="220" y="207.99" width="105" height="70" as="geometry" />
        </mxCell>
        <mxCell id="iMYPUge1Ob-6ghTDvoB5-33" value="Log In" style="text;html=1;strokeColor=none;fillColor=none;align=center;verticalAlign=middle;whiteSpace=wrap;rounded=0;" vertex="1" parent="1">
          <mxGeometry x="243" y="227.99" width="60" height="30" as="geometry" />
        </mxCell>
        <mxCell id="iMYPUge1Ob-6ghTDvoB5-34" value="" style="ellipse;whiteSpace=wrap;html=1;" vertex="1" parent="1">
          <mxGeometry x="373" y="207.99" width="105" height="70" as="geometry" />
        </mxCell>
        <mxCell id="iMYPUge1Ob-6ghTDvoB5-36" value="" style="ellipse;whiteSpace=wrap;html=1;" vertex="1" parent="1">
          <mxGeometry x="530" y="208" width="105" height="70" as="geometry" />
        </mxCell>
        <mxCell id="iMYPUge1Ob-6ghTDvoB5-40" style="edgeStyle=orthogonalEdgeStyle;rounded=0;orthogonalLoop=1;jettySize=auto;html=1;entryX=0;entryY=0.5;entryDx=0;entryDy=0;exitX=1;exitY=0.5;exitDx=0;exitDy=0;" edge="1" parent="1" source="iMYPUge1Ob-6ghTDvoB5-34" target="iMYPUge1Ob-6ghTDvoB5-38">
          <mxGeometry relative="1" as="geometry">
            <mxPoint x="480" y="250" as="sourcePoint" />
          </mxGeometry>
        </mxCell>
        <mxCell id="iMYPUge1Ob-6ghTDvoB5-37" value="Insert Credentials" style="text;html=1;strokeColor=none;fillColor=none;align=center;verticalAlign=middle;whiteSpace=wrap;rounded=0;" vertex="1" parent="1">
          <mxGeometry x="382" y="221.49" width="86.02" height="43.01" as="geometry" />
        </mxCell>
        <mxCell id="iMYPUge1Ob-6ghTDvoB5-38" value="Validate Credentials" style="text;html=1;strokeColor=none;fillColor=none;align=center;verticalAlign=middle;whiteSpace=wrap;rounded=0;" vertex="1" parent="1">
          <mxGeometry x="530" y="213.99" width="99.5" height="58.01" as="geometry" />
        </mxCell>
        <mxCell id="iMYPUge1Ob-6ghTDvoB5-41" value="" style="endArrow=none;html=1;rounded=0;exitX=1;exitY=0.5;exitDx=0;exitDy=0;" edge="1" parent="1" source="iMYPUge1Ob-6ghTDvoB5-36">
          <mxGeometry width="50" height="50" relative="1" as="geometry">
            <mxPoint x="640" y="230" as="sourcePoint" />
            <mxPoint x="740" y="270" as="targetPoint" />
          </mxGeometry>
        </mxCell>
        <mxCell id="iMYPUge1Ob-6ghTDvoB5-42" value="" style="endArrow=none;html=1;rounded=0;entryX=0;entryY=0.5;entryDx=0;entryDy=0;" edge="1" parent="1" target="iMYPUge1Ob-6ghTDvoB5-32">
          <mxGeometry width="50" height="50" relative="1" as="geometry">
            <mxPoint x="100" y="390" as="sourcePoint" />
            <mxPoint x="160" y="347.5" as="targetPoint" />
          </mxGeometry>
        </mxCell>
        <mxCell id="iMYPUge1Ob-6ghTDvoB5-43" value="" style="endArrow=none;html=1;rounded=0;entryX=0;entryY=0.5;entryDx=0;entryDy=0;" edge="1" parent="1" target="iMYPUge1Ob-6ghTDvoB5-32">
          <mxGeometry width="50" height="50" relative="1" as="geometry">
            <mxPoint x="100" y="190" as="sourcePoint" />
            <mxPoint x="210" y="87.5" as="targetPoint" />
          </mxGeometry>
        </mxCell>
        <mxCell id="iMYPUge1Ob-6ghTDvoB5-44" value="" style="ellipse;whiteSpace=wrap;html=1;" vertex="1" parent="1">
          <mxGeometry x="210" y="330" width="105" height="70" as="geometry" />
        </mxCell>
        <mxCell id="iMYPUge1Ob-6ghTDvoB5-46" value="Add details" style="text;html=1;strokeColor=none;fillColor=none;align=center;verticalAlign=middle;whiteSpace=wrap;rounded=0;" vertex="1" parent="1">
          <mxGeometry x="222" y="345" width="80" height="40" as="geometry" />
        </mxCell>
        <mxCell id="iMYPUge1Ob-6ghTDvoB5-47" value="" style="endArrow=none;html=1;rounded=0;entryX=0;entryY=0.5;entryDx=0;entryDy=0;" edge="1" parent="1" target="iMYPUge1Ob-6ghTDvoB5-44">
          <mxGeometry width="50" height="50" relative="1" as="geometry">
            <mxPoint x="100" y="390" as="sourcePoint" />
            <mxPoint x="150" y="340" as="targetPoint" />
          </mxGeometry>
        </mxCell>
        <mxCell id="iMYPUge1Ob-6ghTDvoB5-49" value="" style="ellipse;whiteSpace=wrap;html=1;" vertex="1" parent="1">
          <mxGeometry x="379" y="289" width="93" height="62" as="geometry" />
        </mxCell>
        <mxCell id="iMYPUge1Ob-6ghTDvoB5-50" value="Set Menus" style="text;html=1;strokeColor=none;fillColor=none;align=center;verticalAlign=middle;whiteSpace=wrap;rounded=0;" vertex="1" parent="1">
          <mxGeometry x="395.5" y="305" width="60" height="30" as="geometry" />
        </mxCell>
        <mxCell id="iMYPUge1Ob-6ghTDvoB5-66" value="" style="endArrow=none;dashed=1;html=1;rounded=0;entryX=0;entryY=0.5;entryDx=0;entryDy=0;exitX=1;exitY=0.5;exitDx=0;exitDy=0;" edge="1" parent="1" source="iMYPUge1Ob-6ghTDvoB5-44" target="iMYPUge1Ob-6ghTDvoB5-49">
          <mxGeometry width="50" height="50" relative="1" as="geometry">
            <mxPoint x="299" y="340" as="sourcePoint" />
            <mxPoint x="409" y="320" as="targetPoint" />
          </mxGeometry>
        </mxCell>
        <mxCell id="iMYPUge1Ob-6ghTDvoB5-68" value="" style="ellipse;whiteSpace=wrap;html=1;" vertex="1" parent="1">
          <mxGeometry x="395.5" y="365" width="105" height="70" as="geometry" />
        </mxCell>
        <mxCell id="iMYPUge1Ob-6ghTDvoB5-69" value="Location details" style="text;html=1;strokeColor=none;fillColor=none;align=center;verticalAlign=middle;whiteSpace=wrap;rounded=0;" vertex="1" parent="1">
          <mxGeometry x="403" y="377.5" width="90" height="45" as="geometry" />
        </mxCell>
        <mxCell id="iMYPUge1Ob-6ghTDvoB5-72" value="" style="endArrow=none;html=1;rounded=0;exitX=1;exitY=0.5;exitDx=0;exitDy=0;" edge="1" parent="1" source="iMYPUge1Ob-6ghTDvoB5-49">
          <mxGeometry width="50" height="50" relative="1" as="geometry">
            <mxPoint x="690" y="320" as="sourcePoint" />
            <mxPoint x="740" y="270" as="targetPoint" />
          </mxGeometry>
        </mxCell>
        <mxCell id="iMYPUge1Ob-6ghTDvoB5-73" value="" style="endArrow=none;html=1;rounded=0;exitX=1;exitY=0.5;exitDx=0;exitDy=0;" edge="1" parent="1" source="iMYPUge1Ob-6ghTDvoB5-68">
          <mxGeometry width="50" height="50" relative="1" as="geometry">
            <mxPoint x="690" y="320" as="sourcePoint" />
            <mxPoint x="740" y="270" as="targetPoint" />
          </mxGeometry>
        </mxCell>
        <mxCell id="iMYPUge1Ob-6ghTDvoB5-75" value="&amp;lt;&amp;lt;include&amp;gt;&amp;gt;" style="text;html=1;strokeColor=none;fillColor=none;align=center;verticalAlign=middle;whiteSpace=wrap;rounded=0;labelBackgroundColor=default;" vertex="1" parent="1">
          <mxGeometry x="325.5" y="370" width="60" height="30" as="geometry" />
        </mxCell>
        <mxCell id="iMYPUge1Ob-6ghTDvoB5-79" value="" style="ellipse;whiteSpace=wrap;html=1;" vertex="1" parent="1">
          <mxGeometry x="550" y="442.17" width="113" height="75.33" as="geometry" />
        </mxCell>
        <mxCell id="iMYPUge1Ob-6ghTDvoB5-80" value="Delete User" style="text;html=1;strokeColor=none;fillColor=none;align=center;verticalAlign=middle;whiteSpace=wrap;rounded=0;" vertex="1" parent="1">
          <mxGeometry x="566.5" y="459.83" width="80" height="40" as="geometry" />
        </mxCell>
        <mxCell id="iMYPUge1Ob-6ghTDvoB5-81" value="" style="endArrow=none;html=1;rounded=0;exitX=1;exitY=0.5;exitDx=0;exitDy=0;" edge="1" parent="1" source="iMYPUge1Ob-6ghTDvoB5-79">
          <mxGeometry width="50" height="50" relative="1" as="geometry">
            <mxPoint x="690" y="320" as="sourcePoint" />
            <mxPoint x="740" y="270" as="targetPoint" />
          </mxGeometry>
        </mxCell>
        <mxCell id="iMYPUge1Ob-6ghTDvoB5-83" value="" style="endArrow=none;dashed=1;html=1;rounded=0;entryX=0;entryY=0.5;entryDx=0;entryDy=0;exitX=1;exitY=0.5;exitDx=0;exitDy=0;" edge="1" parent="1" source="iMYPUge1Ob-6ghTDvoB5-44" target="iMYPUge1Ob-6ghTDvoB5-68">
          <mxGeometry width="50" height="50" relative="1" as="geometry">
            <mxPoint x="302" y="445" as="sourcePoint" />
            <mxPoint x="366" y="400" as="targetPoint" />
          </mxGeometry>
        </mxCell>
        <mxCell id="iMYPUge1Ob-6ghTDvoB5-89" value="&amp;lt;&amp;lt;include&amp;gt;&amp;gt;" style="text;html=1;strokeColor=none;fillColor=none;align=center;verticalAlign=middle;whiteSpace=wrap;rounded=0;labelBackgroundColor=default;" vertex="1" parent="1">
          <mxGeometry x="313" y="321" width="60" height="30" as="geometry" />
        </mxCell>
        <mxCell id="iMYPUge1Ob-6ghTDvoB5-91" value="" style="ellipse;whiteSpace=wrap;html=1;" vertex="1" parent="1">
          <mxGeometry x="393.5" y="447.5" width="105" height="70" as="geometry" />
        </mxCell>
        <mxCell id="iMYPUge1Ob-6ghTDvoB5-92" value="Promotions and Discounts" style="text;html=1;strokeColor=none;fillColor=none;align=center;verticalAlign=middle;whiteSpace=wrap;rounded=0;" vertex="1" parent="1">
          <mxGeometry x="401" y="460" width="90" height="45" as="geometry" />
        </mxCell>
        <mxCell id="iMYPUge1Ob-6ghTDvoB5-93" value="" style="endArrow=none;html=1;rounded=0;exitX=1;exitY=0.5;exitDx=0;exitDy=0;" edge="1" source="iMYPUge1Ob-6ghTDvoB5-91" parent="1">
          <mxGeometry width="50" height="50" relative="1" as="geometry">
            <mxPoint x="688" y="402.5" as="sourcePoint" />
            <mxPoint x="738" y="270" as="targetPoint" />
          </mxGeometry>
        </mxCell>
        <mxCell id="iMYPUge1Ob-6ghTDvoB5-94" value="&amp;lt;&amp;lt;include&amp;gt;&amp;gt;" style="text;html=1;strokeColor=none;fillColor=none;align=center;verticalAlign=middle;whiteSpace=wrap;rounded=0;labelBackgroundColor=default;" vertex="1" parent="1">
          <mxGeometry x="319" y="422.5" width="60" height="30" as="geometry" />
        </mxCell>
        <mxCell id="iMYPUge1Ob-6ghTDvoB5-95" value="" style="endArrow=none;dashed=1;html=1;rounded=0;entryX=0;entryY=0.5;entryDx=0;entryDy=0;exitX=1;exitY=1;exitDx=0;exitDy=0;" edge="1" target="iMYPUge1Ob-6ghTDvoB5-91" parent="1" source="iMYPUge1Ob-6ghTDvoB5-44">
          <mxGeometry width="50" height="50" relative="1" as="geometry">
            <mxPoint x="313" y="447.5" as="sourcePoint" />
            <mxPoint x="364" y="482.5" as="targetPoint" />
          </mxGeometry>
        </mxCell>
      </root>
    </mxGraphModel>
  </diagram>
</mxfile>
